<svg width="10163" height="1954" viewBox="0 0 10163 1954" fill="none" xmlns="http://www.w3.org/2000/svg">
<path d="M2138.24 620.736C2178.62 620.736 2211.35 590.592 2211.35 553.406C2211.35 516.221 2178.62 486.076 2138.24 486.076C2097.87 486.076 2065.14 516.221 2065.14 553.406C2065.14 590.592 2097.87 620.736 2138.24 620.736Z" fill="white"/>
<path d="M1931.75 620.736C1972.13 620.736 2004.86 590.592 2004.86 553.406C2004.86 516.221 1972.13 486.076 1931.75 486.076C1891.38 486.076 1858.65 516.221 1858.65 553.406C1858.65 590.592 1891.38 620.736 1931.75 620.736Z" fill="white"/>
<path d="M3017.64 620.736C3058.02 620.736 3090.75 590.592 3090.75 553.406C3090.75 516.221 3058.02 486.076 3017.64 486.076C2977.27 486.076 2944.54 516.221 2944.54 553.406C2944.54 590.592 2977.27 620.736 3017.64 620.736Z" fill="white"/>
<path d="M2810.94 620.736C2851.31 620.736 2884.04 590.592 2884.04 553.406C2884.04 516.221 2851.31 486.076 2810.94 486.076C2770.56 486.076 2737.83 516.221 2737.83 553.406C2737.83 590.592 2770.56 620.736 2810.94 620.736Z" fill="white"/>
<path d="M1315.06 371.295C1377.7 389.891 1413.18 394.166 1462.56 399.51C2052.1 461.71 2504.62 293.919 3171.76 178.282C3478.72 125.059 3683.71 181.275 3803.41 229.581C3865.4 254.59 3866.47 251.811 3828.21 286.01L3804.48 308.24L3122.81 989.236C2952.87 1158.95 2722.44 1254.28 2482.39 1254.28C2236.36 1254.28 2001.01 1154.25 1830.22 977.266L1254.14 380.059L1188.52 343.936C1188.52 343.936 1163.51 389.036 1204.55 432.213C1245.59 475.39 2071.77 1331.02 2071.77 1331.02V1331.66H2898.58V1331.23L3833.77 318.072C3899.82 250.315 3893.62 226.161 3855.57 197.306C3742.07 110.525 3516.98 28.2323 3131.36 68.8441C2812.01 102.402 2506.76 204.359 2185.7 228.726C1908.45 130.617 1621.81 -6.39459 1296.9 0.231543C1222.72 1.72777 1114.99 23.5299 1090.62 98.3411C1052.78 214.192 1130.59 286.865 1252.22 349.279M1927.91 255.658C1788.96 261.43 1430.07 260.788 1323.19 208.848C1312.29 203.504 1240.04 170.587 1241.96 131.258C1243.46 23.9574 1757.11 188.542 2002.51 245.612C1982.63 254.803 1949.71 254.803 1927.69 255.658H1927.91Z" fill="white"/>
<path d="M2333.98 1755.52H2302.55C2276.69 1752.74 2268.57 1725.8 2243.56 1725.8C2210.21 1725.8 2206.58 1771.55 2167.67 1760.65V1569.56C2209.14 1556.73 2215.98 1619.57 2255.74 1601.19C2279.04 1590.5 2274.12 1569.34 2322.01 1564.64C2325.64 1564.21 2329.92 1564 2334.19 1563.57C2334.19 1539.63 2336.97 1519.33 2355.99 1515.91C2372.45 1512.91 2442.99 1512.91 2455.6 1521.46C2464.37 1527.23 2467.15 1546.47 2466.08 1560.58C2525.29 1561.43 2584.93 1564.85 2618.7 1571.69C2699.72 1587.72 2773.25 1688.61 2799.97 1762.36C2783.29 1779.88 2762.99 1743.33 2748.02 1731.36C2698.86 1691.82 2611.43 1659.12 2562.48 1716.83C2551.37 1729.87 2553.93 1751.88 2537.69 1755.73H2466.51V1949.17L2885.9 1944.89L2880.34 1401.34L2081.53 1409.46L2087.09 1953.02L2334.19 1950.45V1755.52H2333.98Z" fill="white"/>
<path d="M3092.24 1020.87C3003.11 1096.11 2774.39 1169.21 2486.67 1169.21C2198.95 1169.21 1956.12 1097.39 1872.76 1019.16L2120.72 1294.47H2878.91L3092.24 1021.08V1020.87Z" fill="white"/>
<path d="M2646.77 502.321H2302.84V604.492H2646.77V502.321Z" stroke="white" stroke-width="32" stroke-miterlimit="10"/>
<path d="M4274.92 825.959C4232.98 823.396 4202.46 811.979 4183.36 791.708C4164.48 771.437 4154.46 739.866 4153.3 696.994C4152.83 669.034 4152.48 642.239 4152.25 616.609C4152.02 590.746 4151.9 565.349 4151.9 540.418C4151.9 515.487 4152.02 490.09 4152.25 464.227C4152.48 438.364 4152.83 411.219 4153.3 382.793C4154 341.552 4164.13 310.68 4183.71 290.176C4203.28 269.672 4233.68 258.022 4274.92 255.226V333.164C4265.14 335.494 4257.92 340.271 4253.26 347.494C4248.6 354.717 4246.15 365.085 4245.92 378.599C4245.22 407.025 4244.63 434.636 4244.17 461.431C4243.94 487.993 4243.82 514.322 4243.82 540.418C4243.82 566.514 4243.94 592.843 4244.17 619.405C4244.63 645.967 4245.22 673.461 4245.92 701.887C4246.15 715.168 4248.6 725.536 4253.26 732.992C4257.92 740.448 4265.14 745.458 4274.92 748.021V825.959ZM4318.96 825.959V748.37C4328.98 745.574 4336.2 740.565 4340.63 733.342C4345.29 725.886 4347.85 715.401 4348.32 701.887C4348.79 691.635 4349.02 682.082 4349.02 673.228C4349.25 664.374 4349.25 655.17 4349.02 645.617C4349.02 635.831 4348.79 624.764 4348.32 612.415H4440.94C4441.4 626.395 4441.64 640.841 4441.64 655.753C4441.64 670.665 4441.4 684.412 4440.94 696.994C4439.77 739.866 4429.64 771.437 4410.53 791.708C4391.66 811.746 4361.13 823.163 4318.96 825.959ZM4345.17 466.673C4345.41 457.12 4345.64 447.451 4345.87 437.665C4346.11 427.646 4346.22 417.743 4346.22 407.957C4346.22 397.938 4345.99 388.152 4345.52 378.599C4345.29 365.784 4342.96 355.765 4338.53 348.542C4334.34 341.319 4327.82 336.31 4318.96 333.514V255.226C4358.8 258.255 4388.28 270.254 4407.39 291.224C4426.72 312.194 4436.98 342.95 4438.14 383.492C4438.37 392.113 4438.49 401.2 4438.49 410.753C4438.72 420.306 4438.72 429.859 4438.49 439.412C4438.26 448.732 4437.91 457.819 4437.44 466.673H4345.17ZM4476.45 820.018L4549.84 260.818H4714.46L4723.9 342.601H4618.7L4613.45 486.595L4598.43 611.366H4649.1L4627.43 692.8H4589.69L4571.51 820.018H4476.45ZM4690.69 820.018L4651.9 486.245L4647.36 376.502H4726.69L4785.76 820.018H4690.69ZM4836.38 820.018V260.818H4929V820.018H4836.38ZM4972.69 632.336V550.553H4976.18C4991.56 550.553 5002.86 547.291 5010.08 540.767C5017.3 534.243 5021.27 524.69 5021.96 512.108C5022.66 499.06 5023.13 485.08 5023.36 470.168C5023.6 455.256 5023.6 440.228 5023.36 425.083C5023.13 409.705 5022.66 395.026 5021.96 381.046C5021.27 368.231 5017.3 358.678 5010.08 352.387C5002.86 345.863 4991.67 342.601 4976.53 342.601H4972.69V260.818H4976.53C5024.29 260.818 5058.78 270.487 5079.98 289.826C5101.42 309.165 5112.83 341.086 5114.23 385.589C5115.16 408.19 5115.63 428.927 5115.63 447.8C5115.63 466.44 5115.16 486.245 5114.23 507.215C5112.83 551.718 5101.42 583.756 5079.98 603.328C5058.78 622.667 5024.18 632.336 4976.18 632.336H4972.69ZM5172.23 820.018V260.818H5264.85V820.018H5172.23ZM5399.27 820.018V373.007H5491.88V820.018H5399.27ZM5305.25 342.601V260.818H5585.55V342.601H5305.25ZM5578.88 820.018L5652.27 260.818H5816.89L5826.32 342.601H5721.12L5715.88 486.595L5700.85 611.366H5751.53L5729.86 692.8H5692.11L5673.94 820.018H5578.88ZM5793.12 820.018L5754.33 486.245L5749.78 376.502H5829.12L5888.18 820.018H5793.12ZM5938.81 820.018V260.818H6031.42V820.018H5938.81ZM6075.11 820.018V738.235H6167.03V820.018H6075.11Z" fill="white"/>
<path d="M4163.71 1665.02V1375.28H4274.85L4312.6 1237.58L4360.13 1105.82H4460.79L4258.08 1577.64V1665.02H4163.71ZM4372.36 1665.02L4327.63 1511.59L4383.2 1384.72L4466.03 1665.02H4372.36ZM4163.71 1340.33V1105.82H4262.27L4261.57 1235.83L4249.34 1340.33H4163.71ZM4504.95 1178.86V1105.82H4602.12V1178.86H4504.95ZM4507.4 1665.02V1245.62H4599.67V1665.02H4507.4ZM4641.84 1315.52V1245.62H4682.38V1126.79H4776.4V1565.06C4776.4 1579.97 4780.01 1589.99 4787.23 1595.12C4794.69 1600.01 4807.62 1602.46 4826.02 1602.46C4832.32 1602.46 4838.26 1602.34 4843.85 1602.11C4849.67 1601.87 4856.08 1601.76 4863.07 1601.76V1668.16C4857.48 1669.33 4851.65 1670.14 4845.6 1670.61C4839.54 1671.31 4832.9 1671.66 4825.68 1671.66C4774.18 1671.66 4737.37 1662.69 4715.23 1644.75C4693.33 1626.81 4682.38 1596.63 4682.38 1554.23V1315.52H4641.84ZM4809.95 1315.52V1245.62H4855.38V1315.52H4809.95ZM4904.49 1555.62C4903.79 1543.04 4903.32 1527.78 4903.09 1509.84C4902.86 1491.67 4902.74 1472.79 4902.74 1453.22C4902.74 1433.42 4902.86 1414.89 4903.09 1397.65C4903.56 1380.41 4904.02 1366.66 4904.49 1356.41C4907.05 1317.73 4917.19 1289.31 4934.89 1271.13C4952.83 1252.96 4980.68 1242.47 5018.42 1239.68V1311.32C5011.67 1313.42 5006.66 1317.03 5003.4 1322.16C5000.37 1327.05 4998.74 1333.81 4998.5 1342.43C4997.8 1363.87 4997.34 1383.9 4997.1 1402.54C4996.87 1420.95 4996.76 1438.89 4996.76 1456.37C4996.76 1473.61 4996.87 1491.2 4997.1 1509.14C4997.34 1526.85 4997.8 1545.72 4998.5 1565.76C4998.74 1574.85 5000.37 1582.07 5003.4 1587.43C5006.66 1592.55 5011.67 1596.28 5018.42 1598.61V1670.96C4979.05 1668.16 4950.74 1657.56 4933.5 1639.15C4916.25 1620.75 4906.58 1592.9 4904.49 1555.62ZM5062.46 1670.96V1598.96C5069.45 1596.63 5074.23 1592.67 5076.79 1587.08C5079.59 1581.49 5081.22 1574.15 5081.68 1565.06C5082.15 1557.37 5082.38 1549.1 5082.38 1540.25C5082.38 1531.16 5082.15 1519.86 5081.68 1506.34H5173.6C5174.07 1510.54 5174.42 1517.88 5174.65 1528.36C5174.88 1538.62 5174.77 1547.7 5174.3 1555.62C5172.44 1593.37 5162.77 1621.45 5145.29 1639.85C5128.05 1658.03 5100.44 1668.4 5062.46 1670.96ZM5081.68 1403.24C5081.92 1397.88 5082.03 1391.48 5082.03 1384.02C5082.27 1376.33 5082.27 1368.76 5082.03 1361.3C5082.03 1353.85 5081.92 1347.56 5081.68 1342.43C5081.22 1334.27 5079.59 1327.63 5076.79 1322.51C5073.99 1317.38 5069.22 1313.77 5062.46 1311.67V1239.68C5100.44 1242.24 5128.17 1252.49 5145.64 1270.43C5163.12 1288.14 5172.67 1315.63 5174.3 1352.91C5174.77 1361.07 5174.88 1370.62 5174.65 1381.57C5174.42 1392.29 5174.07 1399.51 5173.6 1403.24H5081.68ZM5232.29 1665.02V1105.82H5326.66V1665.02H5232.29ZM5424.17 1665.02L5423.12 1341.73C5423.12 1329.85 5420.21 1321.11 5414.38 1315.52C5408.56 1309.69 5399.24 1306.78 5386.42 1306.78C5380.83 1306.78 5375.59 1307.36 5370.69 1308.53V1255.4C5377.22 1250.04 5384.79 1245.97 5393.41 1243.17C5402.26 1240.38 5412.87 1238.98 5425.22 1238.98C5455.27 1238.98 5477.99 1247.6 5493.37 1264.84C5508.98 1281.85 5516.9 1310.16 5517.13 1349.77L5518.53 1665.02H5424.17ZM5578.91 1555.62C5578.21 1543.04 5577.75 1527.78 5577.52 1509.84C5577.28 1491.67 5577.17 1472.79 5577.17 1453.22C5577.17 1433.42 5577.28 1414.89 5577.52 1397.65C5577.98 1380.41 5578.45 1366.66 5578.91 1356.41C5581.48 1317.73 5591.73 1289.31 5609.67 1271.13C5627.61 1252.96 5655.45 1242.47 5693.2 1239.68V1311.32C5686.21 1313.42 5681.08 1317.03 5677.82 1322.16C5674.79 1327.28 5673.16 1334.04 5672.93 1342.43C5672.23 1363.87 5671.76 1383.9 5671.53 1402.54C5671.3 1420.95 5671.18 1438.89 5671.18 1456.37C5671.18 1473.61 5671.3 1491.2 5671.53 1509.14C5671.76 1526.85 5672.23 1545.72 5672.93 1565.76C5673.16 1574.85 5674.79 1582.07 5677.82 1587.43C5681.08 1592.55 5686.21 1596.28 5693.2 1598.61V1670.96C5653.82 1668.16 5625.4 1657.56 5607.92 1639.15C5590.68 1620.75 5581.01 1592.9 5578.91 1555.62ZM5737.24 1670.96V1598.96C5743.53 1596.63 5748.07 1592.79 5750.87 1587.43C5753.9 1582.07 5755.64 1574.61 5756.11 1565.06C5756.58 1558.07 5756.81 1549.92 5756.81 1540.6C5757.04 1531.04 5756.81 1519.63 5756.11 1506.34H5848.03C5848.49 1510.31 5848.84 1517.65 5849.08 1528.36C5849.31 1538.85 5849.19 1547.94 5848.73 1555.62C5846.86 1593.37 5837.31 1621.45 5820.07 1639.85C5802.83 1658.03 5775.22 1668.4 5737.24 1670.96ZM5705.08 1471.05V1407.09H5756.81C5756.81 1397.77 5756.81 1388.68 5756.81 1379.83C5756.81 1370.97 5756.69 1363.28 5756.46 1356.76C5756.46 1350 5756.34 1345.23 5756.11 1342.43C5755.88 1333.81 5754.13 1327.17 5750.87 1322.51C5747.84 1317.61 5743.29 1314 5737.24 1311.67V1239.68C5775.22 1242.47 5802.83 1252.84 5820.07 1270.78C5837.31 1288.49 5846.86 1315.87 5848.73 1352.91C5848.96 1358.27 5849.08 1367.71 5849.08 1381.22C5849.31 1394.5 5849.31 1409.3 5849.08 1425.61C5849.08 1441.92 5848.73 1457.07 5848.03 1471.05H5705.08ZM5906.72 1665.02V1245.62H5999.33V1665.02H5906.72ZM6100.34 1665.02V1341.73C6100.34 1329.85 6096.96 1321.11 6090.2 1315.52C6083.45 1309.69 6073.66 1306.78 6060.85 1306.78C6057.82 1306.78 6054.79 1307.01 6051.76 1307.48C6048.96 1307.71 6046.17 1308.29 6043.37 1309.23V1257.15C6050.36 1251.33 6058.28 1246.9 6067.14 1243.87C6075.99 1240.61 6086.83 1238.98 6099.64 1238.98C6129.7 1238.98 6152.65 1247.6 6168.49 1264.84C6184.57 1281.85 6192.72 1310.16 6192.96 1349.77V1665.02H6100.34ZM6711.04 1667.11C6687.04 1642.18 6662.46 1615.85 6637.3 1588.13C6612.37 1560.17 6588.25 1531.39 6564.95 1501.8C6541.65 1471.98 6520.45 1441.92 6501.34 1411.63C6482.47 1381.11 6466.86 1350.93 6454.51 1321.11C6442.16 1291.05 6434.35 1261.81 6431.09 1233.39C6426.67 1196.57 6432.84 1166.28 6449.62 1142.52C6466.39 1118.52 6494 1104.42 6532.45 1100.23V1166.98C6525.46 1171.87 6520.45 1178.98 6517.42 1188.3C6514.62 1197.39 6513.46 1207.76 6513.92 1219.41C6515.09 1239.91 6520.45 1262.16 6530 1286.16C6539.79 1309.93 6552.37 1334.39 6567.75 1359.55C6583.36 1384.49 6600.37 1409.3 6618.77 1434C6637.18 1458.7 6655.82 1482.23 6674.69 1504.6C6693.57 1526.73 6711.39 1546.89 6728.17 1565.06C6745.18 1583 6759.51 1598.03 6771.16 1610.15L6711.04 1667.11ZM6533.5 1670.96C6490.39 1668.4 6459.05 1656.98 6439.48 1636.71C6420.14 1616.44 6409.54 1584.87 6407.68 1541.99C6407.44 1533.61 6407.21 1526.38 6406.98 1520.32C6406.98 1514.27 6407.09 1508.67 6407.33 1503.55C6407.56 1498.19 6407.79 1492.6 6408.03 1486.77C6408.49 1480.71 6408.96 1473.84 6409.42 1466.15C6410.36 1443.78 6414.78 1425.14 6422.7 1410.23C6430.63 1395.09 6440.3 1381.92 6451.71 1370.74C6458.94 1384.72 6466.86 1398.7 6475.48 1412.68C6484.33 1426.43 6493.65 1440.17 6503.44 1453.92C6502.51 1456.48 6501.69 1459.05 6500.99 1461.61C6500.53 1464.17 6500.06 1466.97 6499.59 1470C6498.9 1478.15 6498.31 1485.49 6497.85 1492.02C6497.61 1498.31 6497.5 1505.41 6497.5 1513.33C6497.5 1521.26 6497.85 1531.63 6498.55 1544.44C6499.24 1557.95 6502.27 1569.14 6507.63 1577.99C6513.22 1586.61 6521.85 1592.44 6533.5 1595.47V1670.96ZM6577.53 1670.61V1595.82C6582.89 1594.65 6587.32 1592.9 6590.81 1590.57C6594.54 1588.01 6597.57 1584.63 6599.9 1580.44C6609.22 1590.92 6618.54 1601.18 6627.86 1611.19C6637.18 1621.21 6646.5 1631.12 6655.82 1640.9C6646.73 1649.52 6635.67 1656.28 6622.62 1661.17C6609.8 1666.07 6594.77 1669.21 6577.53 1670.61ZM6705.8 1506.34C6690.89 1490.03 6676.79 1473.84 6663.51 1457.76C6650.23 1441.45 6638.23 1425.96 6627.51 1411.28C6627.28 1406.39 6626.81 1401.49 6626.11 1396.6C6625.41 1391.71 6624.6 1386.7 6623.67 1381.57H6699.16C6701.26 1397.88 6703 1417.34 6704.4 1439.94C6705.8 1462.54 6706.27 1484.68 6705.8 1506.34ZM6597.8 1365.15C6589.42 1352.8 6581.73 1340.8 6574.74 1329.15C6567.98 1317.27 6562.15 1305.96 6557.26 1295.25C6565.65 1287.09 6572.29 1279.29 6577.18 1271.83C6582.31 1264.37 6586.04 1257.27 6588.37 1250.51C6590.93 1243.52 6592.68 1236.53 6593.61 1229.54C6596.41 1213.7 6596.52 1200.18 6593.96 1189C6591.63 1177.81 6585.69 1169.89 6576.13 1165.23V1100.58C6613.65 1104.07 6640.44 1116.89 6656.52 1139.02C6672.6 1161.16 6678.65 1191.1 6674.69 1228.84C6673.06 1245.85 6669.1 1262.04 6662.81 1277.42C6656.75 1292.57 6648.25 1307.48 6637.3 1322.16C6626.58 1336.6 6613.41 1350.93 6597.8 1365.15ZM6989.75 1665.02V1105.82H7082.36V1665.02H6989.75ZM7126.05 1665.02V1583.23H7130.94C7146.56 1583.23 7158.21 1579.51 7165.89 1572.05C7173.58 1564.59 7177.54 1553.41 7177.78 1538.5C7177.78 1528.71 7177.78 1519.51 7177.78 1510.89C7177.78 1502.03 7177.78 1492.83 7177.78 1483.28C7177.54 1460.91 7173.82 1445.18 7166.59 1436.1C7159.6 1426.78 7147.84 1422.12 7131.29 1422.12H7126.05V1340.33H7131.99C7147.14 1340.33 7158.44 1335.56 7165.89 1326C7173.35 1316.45 7177.08 1302.47 7177.08 1284.06C7177.31 1274.04 7177.43 1264.49 7177.43 1255.4C7177.43 1246.08 7177.31 1236.41 7177.08 1226.4C7177.08 1213.35 7173.23 1203.68 7165.54 1197.39C7157.86 1190.86 7146.21 1187.6 7130.59 1187.6H7126.05V1105.82H7130.59C7179.06 1105.82 7214.36 1115.49 7236.49 1134.83C7258.63 1154.17 7269.7 1186.32 7269.7 1231.29C7269.7 1242.01 7269.7 1251.79 7269.7 1260.65C7269.7 1269.27 7269.46 1277.89 7269 1286.51C7267.83 1310.51 7262.59 1329.61 7253.27 1343.83C7243.95 1357.81 7229.39 1367.94 7209.58 1374.23V1389.61C7230.09 1395.9 7245 1406.27 7254.32 1420.72C7263.87 1434.93 7269.11 1454.39 7270.05 1479.08C7270.74 1490.03 7270.98 1500.05 7270.74 1509.14C7270.74 1518.23 7270.51 1528.36 7270.05 1539.55C7268.18 1584.28 7256.65 1616.44 7235.44 1636.01C7214.24 1655.35 7179.41 1665.02 7130.94 1665.02H7126.05ZM7316.69 1573.8C7316.46 1569.37 7316.34 1564.13 7316.34 1558.07C7316.34 1551.78 7316.46 1546.54 7316.69 1542.34C7318.09 1523.94 7322.28 1508.09 7329.27 1494.81C7336.26 1481.3 7347.33 1469.41 7362.48 1459.16C7377.62 1448.91 7397.89 1439.24 7423.29 1430.15C7429.35 1427.82 7435.29 1425.73 7441.11 1423.86C7447.17 1421.77 7453.23 1419.79 7459.29 1417.92V1478.04C7457.19 1478.97 7454.98 1480.02 7452.65 1481.18C7450.55 1482.35 7448.22 1483.51 7445.66 1484.68C7430.98 1490.97 7421.43 1499.35 7417 1509.84C7412.57 1520.09 7410.13 1531.04 7409.66 1542.69C7409.43 1548.52 7409.31 1552.83 7409.31 1555.62C7409.31 1558.42 7409.43 1562.26 7409.66 1567.16C7410.82 1578.81 7414.79 1587.89 7421.54 1594.42C7428.53 1600.71 7438.2 1603.86 7450.55 1603.86C7454.05 1603.86 7456.96 1603.51 7459.29 1602.81V1658.03C7447.87 1666.18 7432.49 1670.26 7413.15 1670.26C7381.93 1670.26 7358.75 1662.92 7343.6 1648.24C7328.46 1633.56 7319.49 1608.75 7316.69 1573.8ZM7329.97 1403.24C7329.51 1398.58 7329.16 1391.36 7328.93 1381.57C7328.93 1371.79 7329.04 1362.23 7329.27 1352.91C7330.67 1316.33 7339.41 1288.96 7355.49 1270.78C7371.8 1252.61 7400.34 1242.24 7441.11 1239.68V1310.97C7434.36 1313.07 7429.12 1316.68 7425.39 1321.81C7421.66 1326.7 7419.56 1333.46 7419.1 1342.08C7418.86 1345.57 7418.63 1351.87 7418.4 1360.95C7418.4 1369.81 7418.4 1378.54 7418.4 1387.17C7418.63 1395.55 7418.86 1400.91 7419.1 1403.24H7329.97ZM7502.98 1665.02V1346.62C7502.98 1338 7501.46 1330.9 7498.43 1325.3C7495.64 1319.71 7491.09 1315.63 7484.8 1313.07V1239.68C7526.28 1242.47 7554.82 1254.01 7570.43 1274.28C7586.27 1294.31 7594.08 1325.3 7593.85 1367.24L7593.15 1665.02H7502.98ZM7632.38 1315.52V1245.62H7672.93V1126.79H7766.94V1565.06C7766.94 1579.97 7770.55 1589.99 7777.78 1595.12C7785.23 1600.01 7798.16 1602.46 7816.57 1602.46C7822.86 1602.46 7828.8 1602.34 7834.4 1602.11C7840.22 1601.87 7846.63 1601.76 7853.62 1601.76V1668.16C7848.03 1669.33 7842.2 1670.14 7836.14 1670.61C7830.08 1671.31 7823.44 1671.66 7816.22 1671.66C7764.73 1671.66 7727.91 1662.69 7705.78 1644.75C7683.88 1626.81 7672.93 1596.63 7672.93 1554.23V1315.52H7632.38ZM7800.49 1315.52V1245.62H7845.93V1315.52H7800.49ZM7901.32 1665.02V1105.82H7995.69V1665.02H7901.32ZM8093.2 1665.02L8092.15 1341.73C8092.15 1329.85 8089.24 1321.11 8083.41 1315.52C8077.59 1309.69 8068.27 1306.78 8055.45 1306.78C8049.86 1306.78 8044.62 1307.36 8039.73 1308.53V1255.4C8046.25 1250.04 8053.82 1245.97 8062.44 1243.17C8071.3 1240.38 8081.9 1238.98 8094.25 1238.98C8124.31 1238.98 8147.02 1247.6 8162.4 1264.84C8178.01 1281.85 8185.93 1310.16 8186.17 1349.77L8187.56 1665.02H8093.2Z" fill="white"/>
</svg>
