<svg width="4965" height="3583" viewBox="0 0 4965 3583" fill="none" xmlns="http://www.w3.org/2000/svg">
<path d="M2138.24 1301.56C2178.38 1301.56 2210.85 1331.52 2210.85 1368.39C2210.85 1405.26 2178.38 1435.22 2138.24 1435.22C2098.11 1435.22 2065.64 1405.26 2065.64 1368.39C2065.64 1331.52 2098.11 1301.56 2138.24 1301.56Z" fill="white" stroke="white"/>
<path d="M1931.75 1301.56C1971.89 1301.56 2004.36 1331.52 2004.36 1368.39C2004.36 1405.26 1971.89 1435.22 1931.75 1435.22C1891.62 1435.22 1859.15 1405.26 1859.15 1368.39C1859.15 1331.52 1891.62 1301.56 1931.75 1301.56Z" fill="white" stroke="white"/>
<path d="M3017.64 1301.56C3057.78 1301.56 3090.25 1331.52 3090.25 1368.39C3090.25 1405.26 3057.78 1435.22 3017.64 1435.22C2977.5 1435.22 2945.04 1405.26 2945.04 1368.39C2945.04 1331.52 2977.5 1301.56 3017.64 1301.56Z" fill="white" stroke="white"/>
<path d="M2810.94 1301.56C2851.08 1301.56 2883.54 1331.52 2883.54 1368.39C2883.54 1405.26 2851.08 1435.22 2810.94 1435.22C2770.8 1435.22 2738.33 1405.26 2738.33 1368.39C2738.33 1331.52 2770.8 1301.56 2810.94 1301.56Z" fill="white" stroke="white"/>
<mask id="path-5-inside-1_1199_34" fill="white">
<path d="M1315.06 1186.28C1377.7 1204.87 1413.18 1209.15 1462.56 1214.49C2052.1 1276.69 2504.62 1108.9 3171.76 993.265C3478.72 940.042 3683.71 996.257 3803.41 1044.56C3865.4 1069.57 3866.47 1066.79 3828.21 1100.99L3804.48 1123.22L3122.81 1804.22C2952.87 1973.93 2722.44 2069.26 2482.39 2069.26C2236.36 2069.26 2001.01 1969.23 1830.22 1792.25L1254.14 1195.04L1188.52 1158.92C1188.52 1158.92 1163.51 1204.02 1204.55 1247.2C1245.59 1290.37 2071.77 2146 2071.77 2146V2146.64H2898.58V2146.21L3833.77 1133.05C3899.82 1065.3 3893.62 1041.14 3855.57 1012.29C3742.07 925.507 3516.98 843.215 3131.36 883.827C2812.01 917.385 2506.76 1019.34 2185.7 1043.71C1908.45 945.599 1621.81 808.588 1296.9 815.214C1222.72 816.71 1114.99 838.512 1090.62 913.324C1052.78 1029.17 1130.59 1101.85 1252.22 1164.26M1927.91 1070.64C1788.96 1076.41 1430.07 1075.77 1323.19 1023.83C1312.29 1018.49 1240.04 985.57 1241.96 946.24C1243.46 838.94 1757.11 1003.52 2002.51 1060.59C1982.63 1069.79 1949.71 1069.79 1927.69 1070.64H1927.91Z"/>
</mask>
<path d="M1315.06 1186.28C1377.7 1204.87 1413.18 1209.15 1462.56 1214.49C2052.1 1276.69 2504.62 1108.9 3171.76 993.265C3478.72 940.042 3683.71 996.257 3803.41 1044.56C3865.4 1069.57 3866.47 1066.79 3828.21 1100.99L3804.48 1123.22L3122.81 1804.22C2952.87 1973.93 2722.44 2069.26 2482.39 2069.26C2236.36 2069.26 2001.01 1969.23 1830.22 1792.25L1254.14 1195.04L1188.52 1158.92C1188.52 1158.92 1163.51 1204.02 1204.55 1247.2C1245.59 1290.37 2071.77 2146 2071.77 2146V2146.64H2898.58V2146.21L3833.77 1133.05C3899.82 1065.3 3893.62 1041.14 3855.57 1012.29C3742.07 925.507 3516.98 843.215 3131.36 883.827C2812.01 917.385 2506.76 1019.34 2185.7 1043.71C1908.45 945.599 1621.81 808.588 1296.9 815.214C1222.72 816.71 1114.99 838.512 1090.62 913.324C1052.78 1029.17 1130.59 1101.85 1252.22 1164.26M1927.91 1070.64C1788.96 1076.41 1430.07 1075.77 1323.19 1023.83C1312.29 1018.49 1240.04 985.57 1241.96 946.24C1243.46 838.94 1757.11 1003.52 2002.51 1060.59C1982.63 1069.79 1949.71 1069.79 1927.69 1070.64H1927.91Z" fill="white"/>
<path d="M1462.56 1214.49L1462.45 1215.49L1462.45 1215.49L1462.56 1214.49ZM3171.76 993.265L3171.93 994.25V994.25L3171.76 993.265ZM3803.41 1044.56L3803.04 1045.49V1045.49L3803.41 1044.56ZM3828.21 1100.99L3827.54 1100.25L3827.53 1100.26L3827.53 1100.26L3828.21 1100.99ZM3804.48 1123.22L3803.8 1122.49L3803.79 1122.5L3803.78 1122.51L3804.48 1123.22ZM3122.81 1804.22L3123.52 1804.93L3123.52 1804.93L3122.81 1804.22ZM1830.22 1792.25L1829.5 1792.94L1829.5 1792.94L1830.22 1792.25ZM1254.14 1195.04L1254.86 1194.35L1254.76 1194.24L1254.63 1194.17L1254.14 1195.04ZM1188.52 1158.92L1189 1158.04L1188.13 1157.56L1187.65 1158.43L1188.52 1158.92ZM2071.77 2146H2072.77V2145.59L2072.48 2145.3L2071.77 2146ZM2071.77 2146.64H2070.77V2147.64H2071.77V2146.64ZM2898.58 2146.64V2147.64H2899.58V2146.64H2898.58ZM2898.58 2146.21L2897.84 2145.53L2897.58 2145.82V2146.21H2898.58ZM3833.77 1133.05L3833.05 1132.36L3833.04 1132.37L3833.03 1132.38L3833.77 1133.05ZM3855.57 1012.29L3854.96 1013.08L3854.97 1013.08L3855.57 1012.29ZM3131.36 883.827L3131.46 884.821L3131.47 884.821L3131.36 883.827ZM2185.7 1043.71L2185.36 1044.65L2185.56 1044.72L2185.77 1044.71L2185.7 1043.71ZM1296.9 815.214L1296.92 816.214L1296.92 816.214L1296.9 815.214ZM1090.62 913.324L1091.57 913.634L1091.57 913.633L1090.62 913.324ZM1927.91 1070.64L1927.95 1071.64L1927.91 1069.64V1070.64ZM1323.19 1023.83L1322.75 1024.73L1322.75 1024.73L1323.19 1023.83ZM1241.96 946.24L1242.96 946.289L1242.96 946.272L1242.96 946.254L1241.96 946.24ZM2002.51 1060.59L2002.93 1061.5L2005.57 1060.28L2002.73 1059.62L2002.51 1060.59ZM1927.69 1070.64L1927.65 1069.64L1927.69 1071.64V1070.64ZM1315.06 1186.28L1314.78 1187.24C1377.49 1205.86 1413.05 1210.14 1462.45 1215.49L1462.56 1214.49L1462.66 1213.5C1413.31 1208.16 1377.9 1203.89 1315.35 1185.32L1315.06 1186.28ZM1462.56 1214.49L1462.45 1215.49C1757.35 1246.6 2017.97 1220.19 2288.24 1171.55C2423.37 1147.23 2560.92 1117.36 2706.36 1086.34C2851.81 1055.32 3005.17 1023.16 3171.93 994.25L3171.76 993.265L3171.59 992.279C3004.79 1021.19 2851.4 1053.36 2705.95 1084.38C2560.49 1115.41 2422.97 1145.27 2287.88 1169.58C2017.72 1218.2 1757.31 1244.58 1462.66 1213.5L1462.56 1214.49ZM3171.76 993.265L3171.93 994.25C3478.67 941.064 3683.48 997.242 3803.04 1045.49L3803.41 1044.56L3803.79 1043.64C3683.94 995.272 3478.76 939.02 3171.59 992.279L3171.76 993.265ZM3803.41 1044.56L3803.04 1045.49C3818.56 1051.75 3830.21 1056.25 3838.4 1060.03C3842.49 1061.92 3845.68 1063.6 3848.02 1065.22C3850.38 1066.83 3851.81 1068.32 3852.51 1069.77C3853.18 1071.16 3853.22 1072.63 3852.58 1074.36C3851.93 1076.13 3850.57 1078.17 3848.44 1080.61C3844.18 1085.49 3837.14 1091.67 3827.54 1100.25L3828.21 1100.99L3828.88 1101.74C3838.41 1093.22 3845.58 1086.92 3849.95 1081.92C3852.13 1079.42 3853.68 1077.17 3854.46 1075.05C3855.26 1072.89 3855.25 1070.85 3854.31 1068.9C3853.39 1066.99 3851.63 1065.27 3849.16 1063.57C3846.67 1061.86 3843.37 1060.12 3839.24 1058.21C3830.99 1054.41 3819.26 1049.88 3803.79 1043.64L3803.41 1044.56ZM3828.21 1100.99L3827.53 1100.26L3803.8 1122.49L3804.48 1123.22L3805.17 1123.95L3828.89 1101.72L3828.21 1100.99ZM3804.48 1123.22L3803.78 1122.51L3122.1 1803.51L3122.81 1804.22L3123.52 1804.93L3805.19 1123.93L3804.48 1123.22ZM3122.81 1804.22L3122.1 1803.51C2952.35 1973.04 2722.18 2068.26 2482.39 2068.26V2069.26V2070.26C2722.71 2070.26 2953.39 1974.83 3123.52 1804.93L3122.81 1804.22ZM2482.39 2069.26V2068.26C2236.63 2068.26 2001.54 1968.34 1830.94 1791.55L1830.22 1792.25L1829.5 1792.94C2000.48 1970.12 2236.09 2070.26 2482.39 2070.26V2069.26ZM1830.22 1792.25L1830.94 1791.55L1254.86 1194.35L1254.14 1195.04L1253.42 1195.74L1829.5 1792.94L1830.22 1792.25ZM1254.14 1195.04L1254.63 1194.17L1189 1158.04L1188.52 1158.92L1188.04 1159.79L1253.66 1195.92L1254.14 1195.04ZM1188.52 1158.92C1187.65 1158.43 1187.65 1158.43 1187.64 1158.43C1187.64 1158.44 1187.64 1158.44 1187.64 1158.44C1187.64 1158.44 1187.64 1158.44 1187.64 1158.45C1187.64 1158.45 1187.63 1158.46 1187.62 1158.47C1187.61 1158.5 1187.59 1158.53 1187.57 1158.58C1187.52 1158.67 1187.45 1158.81 1187.36 1158.98C1187.18 1159.33 1186.92 1159.85 1186.62 1160.52C1186 1161.87 1185.17 1163.83 1184.31 1166.31C1182.58 1171.28 1180.72 1178.35 1180.15 1186.8C1179.01 1203.71 1183.09 1226.07 1203.83 1247.88L1204.55 1247.2L1205.28 1246.51C1184.97 1225.15 1181.04 1203.36 1182.14 1186.93C1182.7 1178.7 1184.52 1171.81 1186.2 1166.97C1187.04 1164.55 1187.84 1162.65 1188.43 1161.36C1188.73 1160.71 1188.97 1160.22 1189.14 1159.89C1189.22 1159.72 1189.29 1159.6 1189.33 1159.52C1189.35 1159.48 1189.37 1159.45 1189.38 1159.43C1189.39 1159.42 1189.39 1159.41 1189.39 1159.41C1189.39 1159.41 1189.39 1159.4 1189.39 1159.4C1189.39 1159.4 1189.39 1159.4 1189.39 1159.4C1189.39 1159.4 1189.39 1159.4 1188.52 1158.92ZM1204.55 1247.2L1203.83 1247.88C1224.35 1269.48 1441.16 1494.18 1652.83 1713.48C1758.67 1823.13 1863.22 1931.44 1941.32 2012.33C1980.36 2052.77 2012.8 2086.36 2035.47 2109.84C2046.8 2121.58 2055.7 2130.8 2061.76 2137.07C2064.79 2140.21 2067.11 2142.62 2068.67 2144.24C2069.46 2145.05 2070.05 2145.66 2070.45 2146.07C2070.65 2146.28 2070.8 2146.43 2070.9 2146.54C2070.95 2146.59 2070.98 2146.63 2071.01 2146.65C2071.02 2146.67 2071.03 2146.68 2071.04 2146.68C2071.04 2146.69 2071.05 2146.69 2071.77 2146C2072.48 2145.3 2072.48 2145.3 2072.48 2145.29C2072.47 2145.29 2072.46 2145.28 2072.45 2145.26C2072.42 2145.24 2072.38 2145.2 2072.33 2145.15C2072.23 2145.04 2072.08 2144.89 2071.89 2144.68C2071.49 2144.27 2070.9 2143.66 2070.11 2142.85C2068.55 2141.23 2066.23 2138.82 2063.2 2135.68C2057.14 2129.41 2048.24 2120.19 2036.9 2108.45C2014.23 2084.97 1981.8 2051.38 1942.75 2010.94C1864.66 1930.05 1760.11 1821.75 1654.27 1712.09C1442.59 1492.79 1225.79 1268.09 1205.28 1246.51L1204.55 1247.2ZM2071.77 2146H2070.77V2146.64H2071.77H2072.77V2146H2071.77ZM2071.77 2146.64V2147.64H2898.58V2146.64V2145.64H2071.77V2146.64ZM2898.58 2146.64H2899.58V2146.21H2898.58H2897.58V2146.64H2898.58ZM2898.58 2146.21L2899.31 2146.89L3834.5 1133.73L3833.77 1133.05L3833.03 1132.38L2897.84 2145.53L2898.58 2146.21ZM3833.77 1133.05L3834.48 1133.75C3851.02 1116.79 3863.06 1102.53 3871.22 1090.21C3879.38 1077.9 3883.7 1067.47 3884.7 1058.19C3886.71 1039.5 3875.23 1025.94 3856.17 1011.49L3855.57 1012.29L3854.97 1013.08C3873.96 1027.49 3884.6 1040.44 3882.71 1057.98C3881.76 1066.81 3877.62 1076.93 3869.56 1089.11C3861.49 1101.27 3849.54 1115.44 3833.05 1132.36L3833.77 1133.05ZM3855.57 1012.29L3856.18 1011.49C3742.41 924.512 3517.04 842.202 3131.26 882.832L3131.36 883.827L3131.47 884.821C3516.91 844.227 3741.72 926.502 3854.96 1013.08L3855.57 1012.29ZM3131.36 883.827L3131.26 882.832C2971.52 899.618 2815.31 933.509 2658.97 966.236C2502.6 998.966 2346.08 1030.53 2185.62 1042.71L2185.7 1043.71L2185.77 1044.71C2346.38 1032.52 2503.02 1000.92 2659.38 968.193C2815.75 935.46 2971.85 901.594 3131.46 884.821L3131.36 883.827ZM2185.7 1043.71L2186.03 1042.77C1908.93 944.705 1622.02 807.583 1296.87 814.214L1296.9 815.214L1296.92 816.214C1621.59 809.592 1907.98 946.493 2185.36 1044.65L2185.7 1043.71ZM1296.9 815.214L1296.87 814.214C1259.72 814.964 1214.12 820.798 1174.72 835.841C1135.35 850.879 1101.99 875.194 1089.67 913.014L1090.62 913.324L1091.57 913.633C1103.62 876.642 1136.31 852.65 1175.44 837.71C1214.55 822.775 1259.9 816.96 1296.92 816.214L1296.9 815.214ZM1090.62 913.324L1089.67 913.013C1070.65 971.244 1080.7 1018.71 1110.82 1059.43C1140.88 1100.07 1190.91 1133.93 1251.76 1165.15L1252.22 1164.26L1252.68 1163.37C1191.9 1132.18 1142.21 1098.5 1112.42 1058.24C1082.69 1018.05 1072.75 971.253 1091.57 913.634L1090.62 913.324ZM1927.91 1070.64L1927.87 1069.64C1858.42 1072.53 1733.99 1073.81 1613.57 1067.88C1553.36 1064.91 1494.17 1060.15 1443.37 1052.88C1392.53 1045.61 1350.19 1035.84 1323.62 1022.93L1323.19 1023.83L1322.75 1024.73C1349.62 1037.79 1392.22 1047.58 1443.08 1054.86C1493.97 1062.14 1553.23 1066.91 1613.47 1069.88C1733.96 1075.81 1858.45 1074.53 1927.95 1071.64L1927.91 1070.64ZM1323.19 1023.83L1323.63 1022.93C1318.16 1020.25 1297.45 1010.72 1278.35 996.969C1268.8 990.091 1259.69 982.188 1253.1 973.596C1246.51 965.001 1242.49 955.799 1242.96 946.289L1241.96 946.24L1240.96 946.192C1240.46 956.347 1244.76 966.008 1251.51 974.813C1258.27 983.621 1267.55 991.655 1277.18 998.592C1296.45 1012.46 1317.32 1022.07 1322.75 1024.73L1323.19 1023.83ZM1241.96 946.24L1242.96 946.254C1243.05 939.766 1245.07 934.346 1248.82 929.856C1252.58 925.35 1258.13 921.728 1265.36 918.939C1279.84 913.354 1300.83 911.2 1326.89 911.815C1378.99 913.045 1450.93 925.323 1530.56 942.755C1610.17 960.184 1697.41 982.749 1780.1 1004.53C1862.78 1026.3 1940.91 1047.3 2002.28 1061.57L2002.51 1060.59L2002.73 1059.62C1941.4 1045.36 1863.31 1024.38 1780.61 1002.59C1697.92 980.815 1610.65 958.24 1530.99 940.802C1451.34 923.366 1379.24 911.05 1326.94 909.816C1300.8 909.199 1279.5 911.344 1264.64 917.073C1257.21 919.942 1251.33 923.73 1247.28 928.574C1243.22 933.434 1241.06 939.303 1240.96 946.227L1241.96 946.24ZM2002.51 1060.59L2002.09 1059.69C1992.31 1064.21 1979.25 1066.49 1965.81 1067.75C1952.38 1069 1938.69 1069.21 1927.65 1069.64L1927.69 1070.64L1927.73 1071.64C1938.71 1071.21 1952.49 1071 1965.99 1069.74C1979.49 1068.48 1992.83 1066.17 2002.93 1061.5L2002.51 1060.59ZM1927.69 1070.64V1071.64H1927.91V1070.64V1069.64H1927.69V1070.64Z" fill="white" mask="url(#path-5-inside-1_1199_34)"/>
<path d="M2333.98 2570.5H2302.55C2276.69 2567.72 2268.57 2540.79 2243.56 2540.79C2210.21 2540.79 2206.58 2586.53 2167.67 2575.63V2384.54C2209.14 2371.71 2215.98 2434.56 2255.74 2416.17C2279.04 2405.49 2274.12 2384.32 2322.01 2379.62C2325.64 2379.19 2329.92 2378.98 2334.19 2378.55C2334.19 2354.61 2336.97 2334.31 2355.99 2330.89C2372.45 2327.9 2442.99 2327.9 2455.6 2336.45C2464.37 2342.22 2467.15 2361.45 2466.08 2375.56C2525.29 2376.42 2584.93 2379.84 2618.7 2386.68C2699.72 2402.71 2773.25 2503.6 2799.97 2577.34C2783.29 2594.86 2762.99 2558.31 2748.02 2546.34C2698.86 2506.8 2611.43 2474.1 2562.48 2531.81C2551.37 2544.85 2553.93 2566.86 2537.69 2570.71H2466.51V2764.15L2885.9 2759.88L2880.34 2216.32L2081.53 2224.44L2087.09 2768L2334.19 2765.43V2570.5H2333.98Z" fill="white"/>
<path d="M3092.24 1835.85C3003.11 1911.09 2774.39 1984.19 2486.67 1984.19C2198.95 1984.19 1956.12 1912.37 1872.76 1834.14L2120.72 2109.45H2878.91L3092.24 1836.07V1835.85Z" fill="white"/>
<path d="M2646.77 1317.3H2302.84V1419.47H2646.77V1317.3Z" stroke="white" stroke-width="32" stroke-miterlimit="10"/>
<path d="M757.359 3448V3199.3H852.759L885.159 3081.1L925.959 2968H1012.36L838.359 3373V3448H757.359ZM936.459 3448L898.059 3316.3L945.759 3207.4L1016.86 3448H936.459ZM757.359 3169.3V2968H841.959L841.359 3079.6L830.859 3169.3H757.359ZM1050.27 3030.7V2968H1133.67V3030.7H1050.27ZM1052.37 3448V3088H1131.57V3448H1052.37ZM1167.77 3148V3088H1202.57V2986H1283.27V3362.2C1283.27 3375 1286.37 3383.6 1292.57 3388C1298.97 3392.2 1310.07 3394.3 1325.87 3394.3C1331.27 3394.3 1336.37 3394.2 1341.17 3394C1346.17 3393.8 1351.67 3393.7 1357.67 3393.7V3450.7C1352.87 3451.7 1347.87 3452.4 1342.67 3452.8C1337.47 3453.4 1331.77 3453.7 1325.57 3453.7C1281.37 3453.7 1249.77 3446 1230.77 3430.6C1211.97 3415.2 1202.57 3389.3 1202.57 3352.9V3148H1167.77ZM1312.07 3148V3088H1351.07V3148H1312.07ZM1393.22 3354.1C1392.62 3343.3 1392.22 3330.2 1392.02 3314.8C1391.82 3299.2 1391.72 3283 1391.72 3266.2C1391.72 3249.2 1391.82 3233.3 1392.02 3218.5C1392.42 3203.7 1392.82 3191.9 1393.22 3183.1C1395.42 3149.9 1404.12 3125.5 1419.32 3109.9C1434.72 3094.3 1458.62 3085.3 1491.02 3082.9V3144.4C1485.22 3146.2 1480.92 3149.3 1478.12 3153.7C1475.52 3157.9 1474.12 3163.7 1473.92 3171.1C1473.32 3189.5 1472.92 3206.7 1472.72 3222.7C1472.52 3238.5 1472.42 3253.9 1472.42 3268.9C1472.42 3283.7 1472.52 3298.8 1472.72 3314.2C1472.92 3329.4 1473.32 3345.6 1473.92 3362.8C1474.12 3370.6 1475.52 3376.8 1478.12 3381.4C1480.92 3385.8 1485.22 3389 1491.02 3391V3453.1C1457.22 3450.7 1432.92 3441.6 1418.12 3425.8C1403.32 3410 1395.02 3386.1 1393.22 3354.1ZM1528.82 3453.1V3391.3C1534.82 3389.3 1538.92 3385.9 1541.12 3381.1C1543.52 3376.3 1544.92 3370 1545.32 3362.2C1545.72 3355.6 1545.92 3348.5 1545.92 3340.9C1545.92 3333.1 1545.72 3323.4 1545.32 3311.8H1624.22C1624.62 3315.4 1624.92 3321.7 1625.12 3330.7C1625.32 3339.5 1625.22 3347.3 1624.82 3354.1C1623.22 3386.5 1614.92 3410.6 1599.92 3426.4C1585.12 3442 1561.42 3450.9 1528.82 3453.1ZM1545.32 3223.3C1545.52 3218.7 1545.62 3213.2 1545.62 3206.8C1545.82 3200.2 1545.82 3193.7 1545.62 3187.3C1545.62 3180.9 1545.52 3175.5 1545.32 3171.1C1544.92 3164.1 1543.52 3158.4 1541.12 3154C1538.72 3149.6 1534.62 3146.5 1528.82 3144.7V3082.9C1561.42 3085.1 1585.22 3093.9 1600.22 3109.3C1615.22 3124.5 1623.42 3148.1 1624.82 3180.1C1625.22 3187.1 1625.32 3195.3 1625.12 3204.7C1624.92 3213.9 1624.62 3220.1 1624.22 3223.3H1545.32ZM1674.6 3448V2968H1755.6V3448H1674.6ZM1839.3 3448L1838.4 3170.5C1838.4 3160.3 1835.9 3152.8 1830.9 3148C1825.9 3143 1817.9 3140.5 1806.9 3140.5C1802.1 3140.5 1797.6 3141 1793.4 3142V3096.4C1799 3091.8 1805.5 3088.3 1812.9 3085.9C1820.5 3083.5 1829.6 3082.3 1840.2 3082.3C1866 3082.3 1885.5 3089.7 1898.7 3104.5C1912.1 3119.1 1918.9 3143.4 1919.1 3177.4L1920.3 3448H1839.3ZM1972.13 3354.1C1971.53 3343.3 1971.13 3330.2 1970.93 3314.8C1970.73 3299.2 1970.63 3283 1970.63 3266.2C1970.63 3249.2 1970.73 3233.3 1970.93 3218.5C1971.33 3203.7 1971.73 3191.9 1972.13 3183.1C1974.33 3149.9 1983.13 3125.5 1998.53 3109.9C2013.93 3094.3 2037.83 3085.3 2070.23 3082.9V3144.4C2064.23 3146.2 2059.83 3149.3 2057.03 3153.7C2054.43 3158.1 2053.03 3163.9 2052.83 3171.1C2052.23 3189.5 2051.83 3206.7 2051.63 3222.7C2051.43 3238.5 2051.33 3253.9 2051.33 3268.9C2051.33 3283.7 2051.43 3298.8 2051.63 3314.2C2051.83 3329.4 2052.23 3345.6 2052.83 3362.8C2053.03 3370.6 2054.43 3376.8 2057.03 3381.4C2059.83 3385.8 2064.23 3389 2070.23 3391V3453.1C2036.43 3450.7 2012.03 3441.6 1997.03 3425.8C1982.23 3410 1973.93 3386.1 1972.13 3354.1ZM2108.03 3453.1V3391.3C2113.43 3389.3 2117.33 3386 2119.73 3381.4C2122.33 3376.8 2123.83 3370.4 2124.23 3362.2C2124.63 3356.2 2124.83 3349.2 2124.83 3341.2C2125.03 3333 2124.83 3323.2 2124.23 3311.8H2203.13C2203.53 3315.2 2203.83 3321.5 2204.03 3330.7C2204.23 3339.7 2204.13 3347.5 2203.73 3354.1C2202.13 3386.5 2193.93 3410.6 2179.13 3426.4C2164.33 3442 2140.63 3450.9 2108.03 3453.1ZM2080.43 3281.5V3226.6H2124.83C2124.83 3218.6 2124.83 3210.8 2124.83 3203.2C2124.83 3195.6 2124.73 3189 2124.52 3183.4C2124.52 3177.6 2124.43 3173.5 2124.23 3171.1C2124.03 3163.7 2122.53 3158 2119.73 3154C2117.13 3149.8 2113.23 3146.7 2108.03 3144.7V3082.9C2140.63 3085.3 2164.33 3094.2 2179.13 3109.6C2193.93 3124.8 2202.13 3148.3 2203.73 3180.1C2203.93 3184.7 2204.03 3192.8 2204.03 3204.4C2204.23 3215.8 2204.23 3228.5 2204.03 3242.5C2204.03 3256.5 2203.73 3269.5 2203.13 3281.5H2080.43ZM2253.5 3448V3088H2333V3448H2253.5ZM2419.7 3448V3170.5C2419.7 3160.3 2416.8 3152.8 2411 3148C2405.2 3143 2396.8 3140.5 2385.8 3140.5C2383.2 3140.5 2380.6 3140.7 2378 3141.1C2375.6 3141.3 2373.2 3141.8 2370.8 3142.6V3097.9C2376.8 3092.9 2383.6 3089.1 2391.2 3086.5C2398.8 3083.7 2408.1 3082.3 2419.1 3082.3C2444.9 3082.3 2464.6 3089.7 2478.2 3104.5C2492 3119.1 2499 3143.4 2499.2 3177.4V3448H2419.7ZM2943.91 3449.8C2923.31 3428.4 2902.21 3405.8 2880.61 3382C2859.21 3358 2838.51 3333.3 2818.51 3307.9C2798.51 3282.3 2780.31 3256.5 2763.91 3230.5C2747.71 3204.3 2734.31 3178.4 2723.71 3152.8C2713.11 3127 2706.41 3101.9 2703.61 3077.5C2699.81 3045.9 2705.11 3019.9 2719.51 2999.5C2733.91 2978.9 2757.61 2966.8 2790.61 2963.2V3020.5C2784.61 3024.7 2780.31 3030.8 2777.71 3038.8C2775.31 3046.6 2774.31 3055.5 2774.71 3065.5C2775.71 3083.1 2780.31 3102.2 2788.51 3122.8C2796.91 3143.2 2807.71 3164.2 2820.91 3185.8C2834.31 3207.2 2848.91 3228.5 2864.71 3249.7C2880.51 3270.9 2896.51 3291.1 2912.71 3310.3C2928.91 3329.3 2944.21 3346.6 2958.61 3362.2C2973.21 3377.6 2985.51 3390.5 2995.51 3400.9L2943.91 3449.8ZM2791.51 3453.1C2754.51 3450.9 2727.61 3441.1 2710.81 3423.7C2694.21 3406.3 2685.11 3379.2 2683.51 3342.4C2683.31 3335.2 2683.11 3329 2682.91 3323.8C2682.91 3318.6 2683.01 3313.8 2683.21 3309.4C2683.41 3304.8 2683.61 3300 2683.81 3295C2684.21 3289.8 2684.61 3283.9 2685.01 3277.3C2685.81 3258.1 2689.61 3242.1 2696.41 3229.3C2703.21 3216.3 2711.51 3205 2721.31 3195.4C2727.51 3207.4 2734.31 3219.4 2741.71 3231.4C2749.31 3243.2 2757.31 3255 2765.71 3266.8C2764.91 3269 2764.21 3271.2 2763.61 3273.4C2763.21 3275.6 2762.81 3278 2762.41 3280.6C2761.81 3287.6 2761.31 3293.9 2760.91 3299.5C2760.71 3304.9 2760.61 3311 2760.61 3317.8C2760.61 3324.6 2760.91 3333.5 2761.51 3344.5C2762.11 3356.1 2764.71 3365.7 2769.31 3373.3C2774.11 3380.7 2781.51 3385.7 2791.51 3388.3V3453.1ZM2829.31 3452.8V3388.6C2833.91 3387.6 2837.71 3386.1 2840.71 3384.1C2843.91 3381.9 2846.51 3379 2848.51 3375.4C2856.51 3384.4 2864.51 3393.2 2872.51 3401.8C2880.51 3410.4 2888.51 3418.9 2896.51 3427.3C2888.71 3434.7 2879.21 3440.5 2868.01 3444.7C2857.01 3448.9 2844.11 3451.6 2829.31 3452.8ZM2939.41 3311.8C2926.61 3297.8 2914.51 3283.9 2903.11 3270.1C2891.71 3256.1 2881.41 3242.8 2872.21 3230.2C2872.01 3226 2871.61 3221.8 2871.01 3217.6C2870.41 3213.4 2869.71 3209.1 2868.91 3204.7H2933.71C2935.51 3218.7 2937.01 3235.4 2938.21 3254.8C2939.41 3274.2 2939.81 3293.2 2939.41 3311.8ZM2846.71 3190.6C2839.51 3180 2832.91 3169.7 2826.91 3159.7C2821.11 3149.5 2816.11 3139.8 2811.91 3130.6C2819.11 3123.6 2824.81 3116.9 2829.01 3110.5C2833.41 3104.1 2836.61 3098 2838.61 3092.2C2840.81 3086.2 2842.31 3080.2 2843.11 3074.2C2845.51 3060.6 2845.61 3049 2843.41 3039.4C2841.41 3029.8 2836.31 3023 2828.11 3019V2963.5C2860.31 2966.5 2883.31 2977.5 2897.11 2996.5C2910.91 3015.5 2916.11 3041.2 2912.71 3073.6C2911.31 3088.2 2907.91 3102.1 2902.51 3115.3C2897.31 3128.3 2890.01 3141.1 2880.61 3153.7C2871.41 3166.1 2860.11 3178.4 2846.71 3190.6ZM3183.14 3448V2968H3262.64V3448H3183.14ZM3300.14 3448V3377.8H3304.34C3317.74 3377.8 3327.74 3374.6 3334.34 3368.2C3340.94 3361.8 3344.34 3352.2 3344.54 3339.4C3344.54 3331 3344.54 3323.1 3344.54 3315.7C3344.54 3308.1 3344.54 3300.2 3344.54 3292C3344.34 3272.8 3341.14 3259.3 3334.94 3251.5C3328.94 3243.5 3318.84 3239.5 3304.64 3239.5H3300.14V3169.3H3305.24C3318.24 3169.3 3327.94 3165.2 3334.34 3157C3340.74 3148.8 3343.94 3136.8 3343.94 3121C3344.14 3112.4 3344.24 3104.2 3344.24 3096.4C3344.24 3088.4 3344.14 3080.1 3343.94 3071.5C3343.94 3060.3 3340.64 3052 3334.04 3046.6C3327.44 3041 3317.44 3038.2 3304.04 3038.2H3300.14V2968H3304.04C3345.64 2968 3375.94 2976.3 3394.94 2992.9C3413.94 3009.5 3423.44 3037.1 3423.44 3075.7C3423.44 3084.9 3423.44 3093.3 3423.44 3100.9C3423.44 3108.3 3423.24 3115.7 3422.84 3123.1C3421.84 3143.7 3417.34 3160.1 3409.34 3172.3C3401.34 3184.3 3388.84 3193 3371.84 3198.4V3211.6C3389.44 3217 3402.24 3225.9 3410.24 3238.3C3418.44 3250.5 3422.94 3267.2 3423.74 3288.4C3424.34 3297.8 3424.54 3306.4 3424.34 3314.2C3424.34 3322 3424.14 3330.7 3423.74 3340.3C3422.14 3378.7 3412.24 3406.3 3394.04 3423.1C3375.84 3439.7 3345.94 3448 3304.34 3448H3300.14ZM3463.78 3369.7C3463.58 3365.9 3463.48 3361.4 3463.48 3356.2C3463.48 3350.8 3463.58 3346.3 3463.78 3342.7C3464.98 3326.9 3468.58 3313.3 3474.58 3301.9C3480.58 3290.3 3490.08 3280.1 3503.08 3271.3C3516.08 3262.5 3533.48 3254.2 3555.28 3246.4C3560.48 3244.4 3565.58 3242.6 3570.58 3241C3575.78 3239.2 3580.98 3237.5 3586.18 3235.9V3287.5C3584.38 3288.3 3582.48 3289.2 3580.48 3290.2C3578.68 3291.2 3576.68 3292.2 3574.48 3293.2C3561.88 3298.6 3553.68 3305.8 3549.88 3314.8C3546.08 3323.6 3543.98 3333 3543.58 3343C3543.38 3348 3543.28 3351.7 3543.28 3354.1C3543.28 3356.5 3543.38 3359.8 3543.58 3364C3544.58 3374 3547.98 3381.8 3553.78 3387.4C3559.78 3392.8 3568.08 3395.5 3578.68 3395.5C3581.68 3395.5 3584.18 3395.2 3586.18 3394.6V3442C3576.38 3449 3563.18 3452.5 3546.58 3452.5C3519.78 3452.5 3499.88 3446.2 3486.88 3433.6C3473.88 3421 3466.18 3399.7 3463.78 3369.7ZM3475.18 3223.3C3474.78 3219.3 3474.48 3213.1 3474.28 3204.7C3474.28 3196.3 3474.38 3188.1 3474.58 3180.1C3475.78 3148.7 3483.28 3125.2 3497.08 3109.6C3511.08 3094 3535.58 3085.1 3570.58 3082.9V3144.1C3564.78 3145.9 3560.28 3149 3557.08 3153.4C3553.88 3157.6 3552.08 3163.4 3551.68 3170.8C3551.48 3173.8 3551.28 3179.2 3551.08 3187C3551.08 3194.6 3551.08 3202.1 3551.08 3209.5C3551.28 3216.7 3551.48 3221.3 3551.68 3223.3H3475.18ZM3623.68 3448V3174.7C3623.68 3167.3 3622.38 3161.2 3619.78 3156.4C3617.38 3151.6 3613.48 3148.1 3608.08 3145.9V3082.9C3643.68 3085.3 3668.18 3095.2 3681.58 3112.6C3695.18 3129.8 3701.88 3156.4 3701.68 3192.4L3701.08 3448H3623.68ZM3734.76 3148V3088H3769.56V2986H3850.26V3362.2C3850.26 3375 3853.36 3383.6 3859.56 3388C3865.96 3392.2 3877.06 3394.3 3892.86 3394.3C3898.26 3394.3 3903.36 3394.2 3908.16 3394C3913.16 3393.8 3918.66 3393.7 3924.66 3393.7V3450.7C3919.86 3451.7 3914.86 3452.4 3909.66 3452.8C3904.46 3453.4 3898.76 3453.7 3892.56 3453.7C3848.36 3453.7 3816.76 3446 3797.76 3430.6C3778.96 3415.2 3769.56 3389.3 3769.56 3352.9V3148H3734.76ZM3879.06 3148V3088H3918.06V3148H3879.06ZM3965.61 3448V2968H4046.61V3448H3965.61ZM4130.31 3448L4129.41 3170.5C4129.41 3160.3 4126.91 3152.8 4121.91 3148C4116.91 3143 4108.91 3140.5 4097.91 3140.5C4093.11 3140.5 4088.61 3141 4084.41 3142V3096.4C4090.01 3091.8 4096.51 3088.3 4103.91 3085.9C4111.51 3083.5 4120.61 3082.3 4131.21 3082.3C4157.01 3082.3 4176.51 3089.7 4189.71 3104.5C4203.11 3119.1 4209.91 3143.4 4210.11 3177.4L4211.31 3448H4130.31Z" fill="white"/>
<path d="M1732.65 595.1C1696.65 592.9 1670.45 583.1 1654.05 565.7C1637.85 548.3 1629.25 521.2 1628.25 484.4C1627.85 460.4 1627.55 437.4 1627.35 415.4C1627.15 393.2 1627.05 371.4 1627.05 350C1627.05 328.6 1627.15 306.8 1627.35 284.6C1627.55 262.4 1627.85 239.1 1628.25 214.7C1628.85 179.3 1637.55 152.8 1654.35 135.2C1671.15 117.6 1697.25 107.6 1732.65 105.2V172.1C1724.25 174.1 1718.05 178.2 1714.05 184.4C1710.05 190.6 1707.95 199.5 1707.75 211.1C1707.15 235.5 1706.65 259.2 1706.25 282.2C1706.05 305 1705.95 327.6 1705.95 350C1705.95 372.4 1706.05 395 1706.25 417.8C1706.65 440.6 1707.15 464.2 1707.75 488.6C1707.95 500 1710.05 508.9 1714.05 515.3C1718.05 521.7 1724.25 526 1732.65 528.2V595.1ZM1770.45 595.1V528.5C1779.05 526.1 1785.25 521.8 1789.05 515.6C1793.05 509.2 1795.25 500.2 1795.65 488.6C1796.05 479.8 1796.25 471.6 1796.25 464C1796.45 456.4 1796.45 448.5 1796.25 440.3C1796.25 431.9 1796.05 422.4 1795.65 411.8H1875.15C1875.55 423.8 1875.75 436.2 1875.75 449C1875.75 461.8 1875.55 473.6 1875.15 484.4C1874.15 521.2 1865.45 548.3 1849.05 565.7C1832.85 582.9 1806.65 592.7 1770.45 595.1ZM1792.95 286.7C1793.15 278.5 1793.35 270.2 1793.55 261.8C1793.75 253.2 1793.85 244.7 1793.85 236.3C1793.85 227.7 1793.65 219.3 1793.25 211.1C1793.05 200.1 1791.05 191.5 1787.25 185.3C1783.65 179.1 1778.05 174.8 1770.45 172.4V105.2C1804.65 107.8 1829.95 118.1 1846.35 136.1C1862.95 154.1 1871.75 180.5 1872.75 215.3C1872.95 222.7 1873.05 230.5 1873.05 238.7C1873.25 246.9 1873.25 255.1 1873.05 263.3C1872.85 271.3 1872.55 279.1 1872.15 286.7H1792.95ZM1905.63 590L1968.63 110H2109.93L2118.03 180.2H2027.73L2023.23 303.8L2010.33 410.9H2053.83L2035.23 480.8H2002.83L1987.23 590H1905.63ZM2089.53 590L2056.23 303.5L2052.33 209.3H2120.43L2171.13 590H2089.53ZM2214.59 590V110H2294.09V590H2214.59ZM2331.59 428.9V358.7H2334.59C2347.79 358.7 2357.49 355.9 2363.69 350.3C2369.89 344.7 2373.29 336.5 2373.89 325.7C2374.49 314.5 2374.89 302.5 2375.09 289.7C2375.29 276.9 2375.29 264 2375.09 251C2374.89 237.8 2374.49 225.2 2373.89 213.2C2373.29 202.2 2369.89 194 2363.69 188.6C2357.49 183 2347.89 180.2 2334.89 180.2H2331.59V110H2334.89C2375.89 110 2405.49 118.3 2423.69 134.9C2442.09 151.5 2451.89 178.9 2453.09 217.1C2453.89 236.5 2454.29 254.3 2454.29 270.5C2454.29 286.5 2453.89 303.5 2453.09 321.5C2451.89 359.7 2442.09 387.2 2423.69 404C2405.49 420.6 2375.79 428.9 2334.59 428.9H2331.59ZM2502.87 590V110H2582.37V590H2502.87ZM2697.75 590V206.3H2777.25V590H2697.75ZM2617.05 180.2V110H2857.65V180.2H2617.05ZM2851.92 590L2914.92 110H3056.22L3064.32 180.2H2974.02L2969.52 303.8L2956.62 410.9H3000.12L2981.52 480.8H2949.12L2933.52 590H2851.92ZM3035.82 590L3002.52 303.5L2998.62 209.3H3066.72L3117.42 590H3035.82ZM3160.88 590V110H3240.38V590H3160.88ZM3277.88 590V519.8H3356.78V590H3277.88Z" fill="white"/>
</svg>
