<svg width="132" height="92" viewBox="0 0 132 92" fill="none" xmlns="http://www.w3.org/2000/svg">
<g clip-path="url(#clip0_1198_29)">
<path d="M49.46 29.0402C51.3489 29.0402 52.88 27.6299 52.88 25.8902C52.88 24.1505 51.3489 22.7402 49.46 22.7402C47.5712 22.7402 46.04 24.1505 46.04 25.8902C46.04 27.6299 47.5712 29.0402 49.46 29.0402Z" fill="#C9A147"/>
<path d="M39.7999 29.0402C41.6887 29.0402 43.2199 27.6299 43.2199 25.8902C43.2199 24.1505 41.6887 22.7402 39.7999 22.7402C37.9111 22.7402 36.3799 24.1505 36.3799 25.8902C36.3799 27.6299 37.9111 29.0402 39.7999 29.0402Z" fill="#C9A147"/>
<path d="M90.5997 29.0402C92.4885 29.0402 94.0197 27.6299 94.0197 25.8902C94.0197 24.1505 92.4885 22.7402 90.5997 22.7402C88.7109 22.7402 87.1797 24.1505 87.1797 25.8902C87.1797 27.6299 88.7109 29.0402 90.5997 29.0402Z" fill="#C9A147"/>
<path d="M80.9298 29.0402C82.8186 29.0402 84.3498 27.6299 84.3498 25.8902C84.3498 24.1505 82.8186 22.7402 80.9298 22.7402C79.0409 22.7402 77.5098 24.1505 77.5098 25.8902C77.5098 27.6299 79.0409 29.0402 80.9298 29.0402Z" fill="#C9A147"/>
<path d="M10.9503 17.3699C13.8803 18.2399 15.5403 18.4399 17.8503 18.6899C45.4303 21.5999 66.6003 13.7499 97.8103 8.33986C112.17 5.84986 121.76 8.47986 127.36 10.7399C130.26 11.9099 130.31 11.7799 128.52 13.3799L127.41 14.4199L95.5203 46.2799C87.5703 54.2199 76.7903 58.6799 65.5603 58.6799C54.0503 58.6799 43.0403 53.9999 35.0503 45.7199L8.10028 17.7799L5.03028 16.0899C5.03028 16.0899 3.86028 18.1999 5.78028 20.2199C7.70028 22.2399 46.3503 62.2699 46.3503 62.2699V62.2999H85.0303V62.2799L128.78 14.8799C131.87 11.7099 131.58 10.5799 129.8 9.22986C124.49 5.16986 113.96 1.31986 95.9203 3.21986C80.9803 4.78986 66.7003 9.55986 51.6803 10.6999C38.7103 6.10986 25.3003 -0.300144 10.1003 0.00985605C6.63028 0.0798561 1.59028 1.09986 0.45028 4.59986C-1.31972 10.0199 2.32028 13.4199 8.01028 16.3399M39.6203 11.9599C33.1203 12.2299 16.3303 12.1999 11.3303 9.76986C10.8203 9.51986 7.44028 7.97986 7.53028 6.13986C7.60028 1.11986 31.6303 8.81986 43.1103 11.4899C42.1803 11.9199 40.6403 11.9199 39.6103 11.9599H39.6203Z" fill="#243851"/>
<path d="M58.5698 82.1296H57.0998C55.8898 81.9996 55.5098 80.7396 54.3398 80.7396C52.7798 80.7396 52.6098 82.8796 50.7898 82.3696V73.4296C52.7298 72.8296 53.0498 75.7696 54.9098 74.9096C55.9998 74.4096 55.7698 73.4196 58.0098 73.1996C58.1798 73.1796 58.3798 73.1696 58.5798 73.1496C58.5798 72.0296 58.7098 71.0796 59.5998 70.9196C60.3698 70.7796 63.6698 70.7796 64.2598 71.1796C64.6698 71.4496 64.7998 72.3496 64.7498 73.0096C67.5198 73.0496 70.3098 73.2096 71.8898 73.5296C75.6798 74.2796 79.1198 78.9996 80.3698 82.4496C79.5898 83.2696 78.6398 81.5596 77.9398 80.9996C75.6398 79.1496 71.5498 77.6196 69.2598 80.3196C68.7398 80.9296 68.8598 81.9596 68.0998 82.1396H64.7698V91.1896L84.3898 90.9896L84.1298 65.5596L46.7598 65.9396L47.0198 91.3696L58.5798 91.2496V82.1296H58.5698Z" fill="#243851"/>
<path d="M94.09 47.7597C89.92 51.2797 79.22 54.6997 65.76 54.6997C52.3 54.6997 40.94 51.3397 37.04 47.6797L48.64 60.5597H84.11L94.09 47.7697V47.7597Z" fill="#C9A147"/>
<path d="M73.2502 23.5H57.1602V28.28H73.2502V23.5Z" stroke="#243851" stroke-width="2" stroke-miterlimit="10"/>
</g>
<defs>
<clipPath id="clip0_1198_29">
<rect width="131.13" height="91.37" fill="white"/>
</clipPath>
</defs>
</svg>
