<?xml version="1.0" encoding="UTF-8"?>
<svg id="Layer_1" data-name="Layer 1" xmlns="http://www.w3.org/2000/svg" viewBox="0 0 131.13 91.37">
  <defs>
    <style>
      .cls-1 {
        fill: #010101;
      }

      .cls-2 {
        fill: none;
        stroke: #010101;
        stroke-miterlimit: 10;
        stroke-width: 2px;
      }
    </style>
  </defs>
  <g>
    <ellipse class="cls-1" cx="49.46" cy="25.89" rx="3.42" ry="3.15"/>
    <ellipse class="cls-1" cx="39.8" cy="25.89" rx="3.42" ry="3.15"/>
  </g>
  <g>
    <ellipse class="cls-1" cx="90.6" cy="25.89" rx="3.42" ry="3.15"/>
    <ellipse class="cls-1" cx="80.93" cy="25.89" rx="3.42" ry="3.15"/>
  </g>
  <path d="M10.95,17.37c2.93.87,4.59,1.07,6.9,1.32,27.58,2.91,48.75-4.94,79.96-10.35,14.36-2.49,23.95.14,29.55,2.4,2.9,1.17,2.95,1.04,1.16,2.64l-1.11,1.04-31.89,31.86c-7.95,7.94-18.73,12.4-29.96,12.4h0c-11.51,0-22.52-4.68-30.51-12.96L8.1,17.78l-3.07-1.69s-1.17,2.11.75,4.13,40.57,42.05,40.57,42.05v.03h38.68v-.02h0s43.75-47.4,43.75-47.4c3.09-3.17,2.8-4.3,1.02-5.65-5.31-4.06-15.84-7.91-33.88-6.01-14.94,1.57-29.22,6.34-44.24,7.48C38.71,6.11,25.3-.3,10.1.01,6.63.08,1.59,1.1.45,4.6c-1.77,5.42,1.87,8.82,7.56,11.74M39.62,11.96c-6.5.27-23.29.24-28.29-2.19-.51-.25-3.89-1.79-3.8-3.63.07-5.02,24.1,2.68,35.58,5.35-.93.43-2.47.43-3.5.47Z"/>
  <path d="M58.57,82.13h-1.47c-1.21-.13-1.59-1.39-2.76-1.39-1.56,0-1.73,2.14-3.55,1.63v-8.94c1.94-.6,2.26,2.34,4.12,1.48,1.09-.5.86-1.49,3.1-1.71.17-.02.37-.03.57-.05,0-1.12.13-2.07,1.02-2.23.77-.14,4.07-.14,4.66.26.41.27.54,1.17.49,1.83,2.77.04,5.56.2,7.14.52,3.79.75,7.23,5.47,8.48,8.92-.78.82-1.73-.89-2.43-1.45-2.3-1.85-6.39-3.38-8.68-.68-.52.61-.4,1.64-1.16,1.82h-3.33s0,9.05,0,9.05l19.62-.2-.26-25.43-37.37.38.26,25.43,11.56-.12v-9.12Z"/>
  <path d="M94.09,47.76c-4.17,3.52-14.87,6.94-28.33,6.94s-24.82-3.36-28.72-7.02l11.6,12.88h35.47l9.98-12.79Z"/>
  <rect class="cls-2" x="57.16" y="23.5" width="16.09" height="4.78"/>
</svg>